<?xml version="1.0" encoding="iso-8859-1"?>
<!-- Uploaded to: SVG Repo, www.svgrepo.com, Generator: SVG Repo Mixer Tools -->
<svg height="800px" width="800px" version="1.1" id="Layer_1" xmlns="http://www.w3.org/2000/svg" xmlns:xlink="http://www.w3.org/1999/xlink" 
	 viewBox="0 0 512 512" xml:space="preserve">
<path style="fill:#2C6991;" d="M105.904,499.354c-9.143,0-16.555-7.412-16.555-16.555v-27.591c0-9.143,7.412-16.555,16.555-16.555
	s16.555,7.412,16.555,16.555v27.591C122.458,491.942,115.046,499.354,105.904,499.354z"/>
<path style="fill:#528FB3;" d="M105.904,499.354c-9.143,0-16.555-7.412-16.555-16.555v-27.591c0-9.143,7.412-16.555,16.555-16.555
	V499.354z"/>
<path style="fill:#2C6991;" d="M407.199,499.354c-9.143,0-16.555-7.412-16.555-16.555v-27.591c0-9.143,7.412-16.555,16.555-16.555
	s16.555,7.412,16.555,16.555v27.591C423.754,491.942,416.342,499.354,407.199,499.354z"/>
<path style="fill:#528FB3;" d="M407.199,499.354c-9.143,0-16.555-7.412-16.555-16.555v-27.591c0-9.143,7.412-16.555,16.555-16.555
	V499.354z"/>
<path style="fill:#C34A48;" d="M313.031,12.646H198.969c-64.507,0-117.345,53.005-117.345,117.512v307.576
	c0,9.143,7.771,16.37,16.913,16.37h314.926c9.143,0,16.913-7.228,16.913-16.37V130.158
	C430.375,65.652,377.537,12.646,313.031,12.646z"/>
<path style="fill:#FB5858;" d="M255.999,12.646h-57.031c-64.507,0-117.345,53.005-117.345,117.512v307.576
	c0,9.143,7.771,16.37,16.913,16.37h157.463V12.646z"/>
<path style="fill:#FF835D;" d="M205.232,200.266c-9.143,0-16.555-7.412-16.555-16.555v-32.006c0-9.143,7.412-16.555,16.555-16.555
	s16.555,7.412,16.555,16.555v32.006C221.786,192.854,214.374,200.266,205.232,200.266z"/>
<g>
	<path style="fill:#FB5858;" d="M306.767,200.266c-9.143,0-16.555-7.412-16.555-16.555v-32.006c0-9.143,7.412-16.555,16.555-16.555
		c9.143,0,16.555,7.412,16.555,16.555v32.006C323.322,192.854,315.91,200.266,306.767,200.266z"/>
	<path style="fill:#FB5858;" d="M406.336,372.853l-18.309-73.605c-1.5-6.029-6.249-10.711-12.299-12.124l-18.413-4.302
		c-33.193-7.687-67.279-11.334-101.314-10.954c-34.082,0.381-68.111,4.802-101.141,13.25c-0.042,0.011-0.083,0.022-0.125,0.032
		l-7.937,2.096c-5.075,1.341-9.213,5.007-11.153,9.883l-29.295,73.597c-2.03,5.1-1.401,10.874,1.68,15.416
		c3.08,4.541,8.212,7.262,13.701,7.262h134.271H390.27c5.094,0,9.905-2.345,13.043-6.359
		C406.451,383.032,407.565,377.797,406.336,372.853z"/>
</g>
<path style="fill:#FF835D;" d="M256.001,271.867c-34.082,0.381-68.111,4.802-101.141,13.25c-0.042,0.011-0.083,0.022-0.125,0.032
	l-7.937,2.096c-5.075,1.341-9.213,5.007-11.153,9.883l-29.295,73.598c-2.03,5.1-1.401,10.874,1.68,15.416
	c3.08,4.541,8.212,7.262,13.701,7.262h134.271L256.001,271.867z"/>
<path style="fill:#D44A4A;" d="M76.123,180.569c-20.359,0.407-39.433,8.644-53.71,23.191C8.116,218.327,0,237.593,0,258.006
	c0,37.027,26.441,68.07,60.654,75.671v87.959c0,25.917,21.539,47.003,47.457,47.003s47.457-21.085,47.457-47.003V259.124
	c0-21.119-8.856-41.706-23.929-56.481C116.693,187.994,96.848,180.128,76.123,180.569z"/>
<path style="fill:#943836;" d="M435.877,180.569c20.359,0.407,39.433,8.644,53.71,23.191C503.884,218.328,512,237.593,512,258.006
	c0,37.027-26.441,68.07-60.654,75.671v87.959c0,25.917-21.539,47.003-47.457,47.003c-25.918,0-47.457-21.085-47.457-47.003V259.124
	c0-21.119,8.856-41.706,23.929-56.481C395.306,187.994,415.152,180.128,435.877,180.569z"/>
</svg>