<?xml version="1.0" encoding="iso-8859-1"?>
<!-- Uploaded to: SVG Repo, www.svgrepo.com, Generator: SVG Repo Mixer Tools -->
<svg version="1.1" id="Layer_1" xmlns="http://www.w3.org/2000/svg" xmlns:xlink="http://www.w3.org/1999/xlink" 
	 viewBox="0 0 512 512" xml:space="preserve">
<polygon style="fill:#E43138;" points="512,75.457 256,75.457 224.628,261.35 256,436.534 272.775,436.534 288.448,426.076 
	304.122,436.534 344.886,436.534 360.56,426.076 376.233,436.534 512,436.534 "/>
<polygon style="fill:#F25F67;" points="0,75.457 0,414.373 22.165,436.534 56.439,436.534 72.113,426.076 87.786,436.534 
	128.551,436.534 144.224,426.076 159.898,436.534 200.663,436.534 216.337,426.076 232.01,436.534 256,436.534 256,75.457 "/>
<g>
	<rect x="344.889" y="283.769" style="fill:#F39624;" width="31.347" height="152.764"/>
	<rect x="272.771" y="251.983" style="fill:#F39624;" width="31.347" height="184.55"/>
</g>
<g>
	<rect x="200.662" y="324.102" style="fill:#F7C02D;" width="31.347" height="112.441"/>
	<rect x="128.554" y="312.305" style="fill:#F7C02D;" width="31.347" height="124.228"/>
	<rect x="56.435" y="364.424" style="fill:#F7C02D;" width="31.347" height="72.108"/>
	<polygon style="fill:#F7C02D;" points="450.806,171.362 360.56,261.606 308.612,209.656 256,262.268 245.543,287.708 256,306.599 
		308.612,253.987 360.56,305.937 472.97,193.527 	"/>
</g>
<polygon style="fill:#FBE27B;" points="186.178,332.09 134.229,280.14 0,414.368 0,436.534 0,436.534 22.165,436.534 
	134.229,324.471 186.178,376.421 256,306.599 256,262.268 "/>
<polygon style="fill:#F39624;" points="477.561,252.458 446.214,252.458 446.214,198.117 391.873,198.117 391.873,166.77 
	477.561,166.77 "/>
</svg>