<svg id="Capa_1" enable-background="new 0 0 512.042 512.042" height="512" viewBox="0 0 512.042 512.042" width="512" xmlns="http://www.w3.org/2000/svg"><path d="m489.509 504.531h-466.977c-8.296 0-15.022-6.725-15.022-15.022v-466.977c0-8.296 6.725-15.022 15.022-15.022h466.977c8.296 0 15.022 6.725 15.022 15.022v466.977c0 8.296-6.726 15.022-15.022 15.022z" fill="#fff5f5"/><path d="m504.528 22.535v466.972c0 8.302-6.72 15.022-15.022 15.022h-33.969c8.302 0 15.022-6.72 15.022-15.022v-466.972c0-8.302-6.72-15.022-15.022-15.022h33.969c8.303 0 15.022 6.72 15.022 15.022z" fill="#efe2dd"/><path d="m366.179 467.127h-309.867c-2.765 0-5.007-2.242-5.007-5.007v-82.225c0-2.765 2.242-5.007 5.007-5.007h309.867c2.765 0 5.007 2.242 5.007 5.007v82.225c0 2.766-2.241 5.007-5.007 5.007z" fill="#deecf1"/><path d="m366.179 467.127h-23.857v-92.239h23.857c2.765 0 5.007 2.242 5.007 5.007v82.225c0 2.766-2.241 5.007-5.007 5.007z" fill="#a8d3d8"/><path d="m504.531 94.551h-497.02v-72.019c0-8.296 6.725-15.022 15.022-15.022h466.977c8.296 0 15.022 6.725 15.022 15.022v72.019z" fill="#00aaf2"/><path d="m504.528 22.535v72.014h-33.969v-72.014c0-8.302-6.72-15.022-15.022-15.022h33.969c8.303 0 15.022 6.72 15.022 15.022z" fill="#0091d0"/><circle cx="66.744" cy="52.312" fill="#ff5757" r="16.465"/><circle cx="130.332" cy="52.312" fill="#ffc143" r="16.465"/><circle cx="193.92" cy="52.312" fill="#a3e72d" r="16.465"/><path d="m83.204 52.318c0 9.089-7.364 16.454-16.454 16.454-4.403 0-8.408-1.725-11.359-4.55 8.908-.193 16.079-7.478 16.079-16.442 0-4.698-1.963-8.919-5.106-11.915.125-.012.261-.012.386-.012 9.089-.001 16.454 7.364 16.454 16.465z" fill="#ff4343"/><path d="m146.795 52.318c0 9.089-7.365 16.454-16.465 16.454-4.403 0-8.397-1.725-11.359-4.55 8.919-.193 16.091-7.478 16.091-16.442 0-4.698-1.963-8.919-5.106-11.915.125-.012.25-.012.374-.012 9.101-.001 16.465 7.364 16.465 16.465z" fill="#ffb509"/><path d="m210.386 52.318c0 9.089-7.376 16.454-16.465 16.454-4.403 0-8.397-1.725-11.359-4.55 8.919-.193 16.079-7.478 16.079-16.442 0-4.698-1.963-8.919-5.106-11.915.125-.012.261-.012.386-.012 9.089-.001 16.465 7.364 16.465 16.465z" fill="#80cf00"/><path d="m448.526 127.782h-227.91c-12.12 0-22.036 9.916-22.036 22.036v30.965c0 12.12 9.916 22.036 22.036 22.036h192.068s-5.483 21.876 17.594 32.68c3.134 1.467 6.545-1.399 5.582-4.722-2.242-7.733-3.954-19.615 2.877-27.958h9.789c12.12 0 22.036-9.916 22.036-22.036v-30.965c0-12.119-9.917-22.036-22.036-22.036z" fill="#ffc143"/><path d="m73.341 238.555h227.91c12.12 0 22.036 9.916 22.036 22.036v30.965c0 12.12-9.916 22.036-22.036 22.036h-192.069s5.483 21.876-17.594 32.68c-3.134 1.467-6.545-1.399-5.582-4.722 2.242-7.733 3.954-19.615-2.877-27.958h-9.789c-12.12 0-22.036-9.916-22.036-22.036v-30.965c.001-12.12 9.917-22.036 22.037-22.036z" fill="#ff5ca8"/><path d="m489.509 0h-466.977c-12.424 0-22.532 10.108-22.532 22.532v72.019 394.958c0 12.425 10.108 22.532 22.532 22.532h466.977c12.425 0 22.532-10.108 22.532-22.532l-.002-285.563c0-4.148-3.363-7.511-7.511-7.511s-7.511 3.363-7.511 7.511l.002 285.563c0 4.141-3.37 7.511-7.511 7.511h-466.976c-4.141 0-7.511-3.37-7.511-7.511v-387.447h481.999v67.835c0 4.148 3.363 7.511 7.511 7.511s7.511-3.363 7.511-7.511v-75.346-72.019c0-12.424-10.108-22.532-22.533-22.532zm7.511 87.04h-481.998v-64.508c0-4.141 3.37-7.511 7.511-7.511h466.977c4.141 0 7.511 3.37 7.511 7.511v64.508z"/><path d="m66.744 28.336c-13.22 0-23.975 10.755-23.975 23.975s10.755 23.976 23.975 23.976 23.976-10.755 23.976-23.975-10.755-23.976-23.976-23.976zm0 32.93c-4.937 0-8.954-4.017-8.954-8.954s4.017-8.954 8.954-8.954 8.954 4.017 8.954 8.954-4.016 8.954-8.954 8.954z"/><path d="m130.333 28.336c-13.22 0-23.976 10.755-23.976 23.975s10.756 23.976 23.976 23.976 23.975-10.756 23.975-23.976-10.755-23.975-23.975-23.975zm0 32.93c-4.937 0-8.954-4.017-8.954-8.954s4.017-8.954 8.954-8.954 8.954 4.017 8.954 8.954-4.017 8.954-8.954 8.954z"/><path d="m193.921 28.336c-13.22 0-23.976 10.755-23.976 23.975s10.756 23.976 23.976 23.976 23.975-10.756 23.975-23.976-10.755-23.975-23.975-23.975zm0 32.93c-4.937 0-8.954-4.017-8.954-8.954s4.017-8.954 8.954-8.954 8.954 4.017 8.954 8.954-4.017 8.954-8.954 8.954z"/><path d="m43.794 462.12c0 6.903 5.616 12.518 12.518 12.518h309.867c6.903 0 12.518-5.615 12.518-12.518v-82.224c0-6.902-5.615-12.518-12.518-12.518h-309.867c-6.903 0-12.518 5.616-12.518 12.518zm15.022-79.721h304.86v77.217h-304.86z"/><path d="m81.51 412.746h24.585c4.148 0 7.511-3.363 7.511-7.511s-3.363-7.511-7.511-7.511h-24.585c-4.148 0-7.511 3.363-7.511 7.511.001 4.149 3.363 7.511 7.511 7.511z"/><path d="m283.614 397.725h-149.989c-4.148 0-7.511 3.363-7.511 7.511s3.363 7.511 7.511 7.511h149.989c4.148 0 7.511-3.363 7.511-7.511 0-4.149-3.363-7.511-7.511-7.511z"/><path d="m260.831 429.27h-54.851c-4.148 0-7.511 3.363-7.511 7.511s3.363 7.511 7.511 7.511h54.851c4.148 0 7.511-3.363 7.511-7.511s-3.363-7.511-7.511-7.511z"/><path d="m177.293 429.27h-17.098c-4.148 0-7.511 3.363-7.511 7.511s3.363 7.511 7.511 7.511h17.098c4.148 0 7.511-3.363 7.511-7.511s-3.363-7.511-7.511-7.511z"/><path d="m132.675 429.27h-51.165c-4.148 0-7.511 3.363-7.511 7.511s3.363 7.511 7.511 7.511h51.165c4.148 0 7.511-3.363 7.511-7.511s-3.363-7.511-7.511-7.511z"/><path d="m478.073 149.818c0-16.292-13.255-29.546-29.547-29.546h-227.91c-16.292 0-29.547 13.255-29.547 29.547v30.964c0 16.292 13.255 29.547 29.547 29.547h183.977c.53 10.446 5.651 24.083 22.5 31.972 1.563.732 3.237 1.089 4.901 1.089 2.706 0 5.385-.945 7.513-2.766 3.473-2.971 4.839-7.545 3.566-11.94-1.325-4.568-2.883-12.445-.218-18.355h5.671c16.292 0 29.547-13.255 29.547-29.547zm-15.022 30.965c0 8.009-6.516 14.525-14.525 14.525h-9.789c-2.252 0-4.385 1.01-5.811 2.752-5.537 6.761-7.6 15.783-6.108 26.405-9.199-7.972-7.152-18.497-6.848-19.821.562-2.244.059-4.622-1.364-6.446s-3.608-2.89-5.922-2.89h-192.068c-8.009 0-14.525-6.516-14.525-14.525v-30.964c0-8.009 6.516-14.525 14.525-14.525h227.91c8.009 0 14.525 6.516 14.525 14.525z"/><path d="m301.251 306.081h-42.226c-4.148 0-7.511 3.363-7.511 7.511s3.363 7.511 7.511 7.511h42.226c16.292 0 29.547-13.254 29.547-29.547v-30.965c0-16.292-13.255-29.547-29.547-29.547h-227.91c-16.292 0-29.547 13.255-29.547 29.547v30.965c0 16.292 13.254 29.547 29.547 29.547h5.671c2.664 5.909 1.106 13.787-.218 18.355-1.274 4.394.091 8.968 3.564 11.939 2.129 1.821 4.808 2.767 7.514 2.767 1.664 0 3.339-.357 4.902-1.089 16.849-7.888 21.97-21.526 22.5-31.971h109.705c4.148 0 7.511-3.363 7.511-7.511s-3.363-7.511-7.511-7.511h-117.796c-2.313 0-4.506 1.033-5.929 2.857s-1.935 4.169-1.373 6.413c.318 1.38 2.367 11.915-6.832 19.888 1.491-10.623-.572-19.644-6.108-26.405-1.427-1.742-3.559-2.752-5.811-2.752h-9.788c-8.01 0-14.526-6.517-14.526-14.526v-30.965c0-8.009 6.516-14.525 14.525-14.525h227.91c8.009 0 14.525 6.516 14.525 14.525v30.965c0 8.008-6.516 14.524-14.525 14.524z"/><path d="m438.454 467.577c4.148 0 7.511-3.363 7.511-7.511v-45.37l9.975 13.445c1.474 1.986 3.741 3.036 6.038 3.036 1.555 0 3.125-.482 4.469-1.479 3.331-2.472 4.028-7.176 1.557-10.507l-23.518-31.698c-.03-.041-.066-.076-.097-.116-.111-.143-.226-.28-.347-.414-.063-.071-.125-.142-.191-.21-.138-.143-.284-.279-.434-.411-.051-.045-.099-.094-.152-.138-.206-.172-.422-.334-.646-.484-.032-.021-.066-.039-.098-.06-.194-.126-.394-.243-.601-.351-.064-.033-.13-.062-.195-.094-.179-.087-.361-.168-.548-.241-.076-.03-.152-.057-.229-.084-.181-.064-.364-.12-.55-.17-.083-.022-.165-.045-.249-.064-.185-.043-.373-.076-.562-.105-.086-.013-.171-.029-.258-.039-.201-.023-.406-.035-.612-.042-.063-.002-.124-.012-.187-.013-.012 0-.024.002-.035.002-.014 0-.027-.002-.041-.002-.242 0-.48.014-.716.036-.165.015-.326.043-.488.069-.115.019-.232.033-.345.056-.163.034-.322.079-.481.124-.093.026-.186.05-.277.079-.16.051-.316.111-.471.172-.087.035-.173.07-.258.108-.152.067-.301.138-.448.216-.086.045-.169.093-.253.141-.14.081-.278.161-.413.251-.094.062-.182.131-.273.197-.117.086-.237.168-.349.261-.195.16-.38.331-.558.51-.058.059-.111.123-.168.184-.13.14-.257.283-.376.432-.021.026-.045.049-.065.075l-24.54 31.698c-2.539 3.28-1.939 7.997 1.341 10.537 3.279 2.538 7.997 1.938 10.537-1.341l11.09-14.325v46.127c0 4.15 3.363 7.513 7.511 7.513z"/></svg>