<svg id="Capa_1" enable-background="new 0 0 511.987 511.987" height="512" viewBox="0 0 511.987 511.987" width="512" xmlns="http://www.w3.org/2000/svg"><g><g><path d="m361.699 389.553c-18.616 3.533-33.681 10.537-44.572 20.122-3.279 7.263-9.999 20.228-9.999 28.733 0 31.781 33.045 57.431 73.809 49.695 17.072-3.24 37.777-15.958 50.281-28.328 8.51-15.511 13.528-35.113 13.528-59.014-.001-.001-42.284-18.944-83.047-11.208z" fill="#bd96e4"/><path d="m312.128 433.408c0-8.505 1.721-16.469 4.999-23.733-12.957 11.404-19.999 26.465-19.999 43.733 0 31.781 33.045 57.431 73.809 49.695 24.906-4.727 46.914-18.966 60.281-43.328-12.504 12.369-28.209 20.088-45.281 23.328-40.764 7.735-73.809-17.915-73.809-49.695z" fill="#9d66d6"/><path d="m131.814 281.028c-18.616 3.533-33.681 10.537-44.572 20.122-3.279 7.263-9.999 20.228-9.999 28.732 0 31.781 33.045 57.431 73.809 49.695 17.072-3.24 37.777-15.958 50.281-28.328 8.51-15.511 13.528-35.113 13.528-59.014-.002 0-42.284-18.943-83.047-11.207z" fill="#bd96e4"/><path d="m82.242 324.883c0-8.505 1.721-16.469 4.999-23.732-12.957 11.404-19.999 26.465-19.999 43.732 0 31.781 33.045 57.431 73.809 49.695 24.906-4.727 46.914-18.966 60.281-43.328-12.504 12.369-28.209 20.088-45.281 23.328-40.764 7.736-73.809-17.914-73.809-49.695z" fill="#9d66d6"/><path d="m425.631 99.983-191.659-90.479c-1.412-.667-2.786-1.149-4.113-1.481l-4 108.815 218.886 91.443v-80.162c0-10.512-8.601-23.174-19.114-28.136z" fill="#bd96e4"/><path d="m229.859 8.023c-8.551-2.14-15 2.471-15 11.571v107.244l229.886 108.525v-27.081l-214.886-101.444z" fill="#9d66d6"/></g><g><path d="m310.482 496.19c-13.253-10.975-20.854-26.568-20.854-42.783 0-26.488 15.13-49.024 41.51-61.83 3.729-1.809 8.214-.254 10.022 3.472s.254 8.213-3.472 10.022c-21.319 10.349-33.061 27.515-33.061 48.335 0 11.904 5.477 22.995 15.422 31.229 12.793 10.593 30.829 14.637 49.488 11.097 40.996-7.78 66.017-41.237 67.625-89.933-11.593-4.354-43.618-14.659-74.065-8.878-4.071.77-7.994-1.9-8.767-5.97-.772-4.069 1.9-7.995 5.97-8.767 30.502-5.788 61.27 2.314 76.944 7.679v-149.748l-214.885-101.443v153.563c0 30.854-7.815 56.409-23.229 75.955-13.952 17.694-33.553 29.366-56.681 33.756-23.06 4.377-45.606-.828-61.853-14.281-13.253-10.975-20.854-26.568-20.854-42.782 0-26.488 15.13-49.024 41.51-61.83 3.727-1.81 8.213-.255 10.022 3.472s.254 8.213-3.472 10.022c-21.319 10.349-33.061 27.515-33.061 48.336 0 11.904 5.477 22.994 15.421 31.229 12.792 10.593 30.829 14.638 49.489 11.097 40.996-7.78 66.017-41.236 67.625-89.933-11.592-4.354-43.615-14.659-74.065-8.878-4.073.768-7.995-1.9-8.767-5.97-.772-4.069 1.901-7.995 5.97-8.767 30.5-5.789 61.27 2.314 76.944 7.679v-261.746c0-7.278 3.072-13.4 8.43-16.795 5.846-3.705 13.641-3.733 21.386-.077l54.333 25.65c3.746 1.768 5.349 6.238 3.581 9.984s-6.24 5.347-9.984 3.581l-54.334-25.65c-3.487-1.646-5.924-1.469-6.953-.817-1.317.834-1.459 3.163-1.459 4.125v102.49l214.886 101.443v-95.409c0-7.649-6.923-17.628-14.815-21.354l-110.196-52.022c-3.745-1.768-5.349-6.238-3.58-9.984 1.769-3.747 6.236-5.349 9.984-3.581l110.197 52.022c13.128 6.198 23.411 21.536 23.411 34.918v272.642c0 30.854-7.815 56.408-23.229 75.955-13.952 17.694-33.553 29.366-56.681 33.756-23.061 4.377-45.607-.828-61.853-14.281z"/></g></g></svg>