<?xml version="1.0" encoding="iso-8859-1"?>
<!-- Generator: Adobe Illustrator 19.0.0, SVG Export Plug-In . SVG Version: 6.00 Build 0)  -->
<svg version="1.1" id="Layer_1" xmlns="http://www.w3.org/2000/svg" xmlns:xlink="http://www.w3.org/1999/xlink" x="0px" y="0px"
	 viewBox="0 0 512 512" style="enable-background:new 0 0 512 512;" xml:space="preserve">
<path style="fill:#A5A8A0;" d="M401.516,245.221v237.137c0,11.906-10.295,21.558-22.995,21.558H79.584
	c-12.7,0-22.995-9.651-22.995-21.558V245.221H401.516z"/>
<path style="fill:#D2D6CE;" d="M401.516,450.021H56.589c-11.906,0-21.558-9.651-21.558-21.558V61.979
	c0-11.906,9.651-21.558,21.558-21.558h344.926c11.906,0,21.558,9.651,21.558,21.558v366.484
	C423.074,440.37,413.422,450.021,401.516,450.021z"/>
<path style="fill:#FF5200;" d="M369.179,8.084c59.53,0,107.789,48.26,107.789,107.789s-48.26,107.789-107.789,107.789
	s-107.789-48.26-107.789-107.789S309.649,8.084,369.179,8.084z"/>
<path style="fill:#CC0000;" d="M369.179,40.421c41.671,0,75.453,33.781,75.453,75.453s-33.781,75.453-75.453,75.453
	s-75.453-33.781-75.453-75.453S327.508,40.421,369.179,40.421z"/>
<path style="fill:#FFFFFF;" d="M376.994,81.742c-3.061-10.209-12.28-17.068-22.94-17.068h-3.165
	c-10.659,0-19.879,6.86-22.941,17.068l-20.408,68.026c-1.283,4.277,1.144,8.784,5.42,10.066c4.277,1.286,8.784-1.144,10.066-5.42
	l7.792-25.972h43.306l7.792,25.972c1.051,3.502,4.263,5.763,7.74,5.763c0.769,0,1.551-0.111,2.326-0.343
	c4.276-1.283,6.703-5.789,5.42-10.066L376.994,81.742z M335.669,112.274l7.766-25.886c0.995-3.317,3.99-5.546,7.455-5.546h3.165
	c3.463,0,6.459,2.229,7.455,5.547l7.765,25.886h-33.605V112.274z M447.326,112.424c0,4.465-3.62,8.084-8.084,8.084h-6.791v6.791
	c0,4.465-3.62,8.084-8.084,8.084s-8.084-3.62-8.084-8.084v-6.791h-6.791c-4.465,0-8.084-3.62-8.084-8.084
	c0-4.465,3.62-8.084,8.084-8.084h6.791v-6.791c0-4.465,3.62-8.084,8.084-8.084s8.084,3.62,8.084,8.084v6.791h6.791
	C443.707,104.34,447.326,107.96,447.326,112.424z"/>
<path style="fill:#474747;" d="M164.379,72.758H99.705c-11.906,0-21.558-9.651-21.558-21.558V29.642
	c0-11.906,9.651-21.558,21.558-21.558h64.674c11.906,0,21.558,9.651,21.558,21.558V51.2
	C185.937,63.106,176.285,72.758,164.379,72.758z"/>
<path style="fill:#A5A8A0;" d="M218.274,137.432c0,4.465-3.62,8.084-8.084,8.084H80.842c-4.465,0-8.084-3.62-8.084-8.084
	c0-4.465,3.62-8.084,8.084-8.084h129.347C214.654,129.347,218.274,132.967,218.274,137.432z M167.074,215.579H80.842
	c-4.465,0-8.084,3.62-8.084,8.084c0,4.465,3.62,8.084,8.084,8.084h86.232c4.465,0,8.084-3.62,8.084-8.084
	C175.158,219.199,171.538,215.579,167.074,215.579z M200.488,215.579h-1.078c-4.465,0-8.084,3.62-8.084,8.084
	c0,4.465,3.62,8.084,8.084,8.084h1.078c4.465,0,8.084-3.62,8.084-8.084C208.573,219.199,204.953,215.579,200.488,215.579z
	 M167.074,258.695H80.842c-4.465,0-8.084,3.62-8.084,8.084s3.62,8.084,8.084,8.084h86.232c4.465,0,8.084-3.62,8.084-8.084
	S171.538,258.695,167.074,258.695z M167.074,301.811H80.842c-4.465,0-8.084,3.62-8.084,8.084c0,4.465,3.62,8.084,8.084,8.084h86.232
	c4.465,0,8.084-3.62,8.084-8.084C175.158,305.43,171.538,301.811,167.074,301.811z M200.488,301.811h-1.078
	c-4.465,0-8.084,3.62-8.084,8.084c0,4.465,3.62,8.084,8.084,8.084h1.078c4.465,0,8.084-3.62,8.084-8.084
	C208.573,305.43,204.953,301.811,200.488,301.811z M167.074,344.926H80.842c-4.465,0-8.084,3.62-8.084,8.084
	c0,4.465,3.62,8.084,8.084,8.084h86.232c4.465,0,8.084-3.62,8.084-8.084C175.158,348.546,171.538,344.926,167.074,344.926z
	 M167.074,388.042H80.842c-4.465,0-8.084,3.62-8.084,8.084c0,4.465,3.62,8.084,8.084,8.084h86.232c4.465,0,8.084-3.62,8.084-8.084
	C175.158,391.662,171.538,388.042,167.074,388.042z M200.488,344.926h-1.078c-4.465,0-8.084,3.62-8.084,8.084
	c0,4.465,3.62,8.084,8.084,8.084h1.078c4.465,0,8.084-3.62,8.084-8.084C208.573,348.546,204.953,344.926,200.488,344.926z
	 M346.543,258.695h-86.232c-4.465,0-8.084,3.62-8.084,8.084s3.62,8.084,8.084,8.084h86.232c4.465,0,8.084-3.62,8.084-8.084
	S351.008,258.695,346.543,258.695z M346.543,301.811h-86.232c-4.465,0-8.084,3.62-8.084,8.084c0,4.465,3.62,8.084,8.084,8.084
	h86.232c4.465,0,8.084-3.62,8.084-8.084C354.627,305.43,351.008,301.811,346.543,301.811z M378.88,274.863h1.078
	c4.465,0,8.084-3.62,8.084-8.084s-3.62-8.084-8.084-8.084h-1.078c-4.465,0-8.084,3.62-8.084,8.084S374.415,274.863,378.88,274.863z
	 M346.543,344.926h-86.232c-4.465,0-8.084,3.62-8.084,8.084c0,4.465,3.62,8.084,8.084,8.084h86.232c4.465,0,8.084-3.62,8.084-8.084
	C354.627,348.546,351.008,344.926,346.543,344.926z M346.543,388.042h-86.232c-4.465,0-8.084,3.62-8.084,8.084
	c0,4.465,3.62,8.084,8.084,8.084h86.232c4.465,0,8.084-3.62,8.084-8.084C354.627,391.662,351.008,388.042,346.543,388.042z
	 M379.958,344.926h-1.078c-4.465,0-8.084,3.62-8.084,8.084c0,4.465,3.62,8.084,8.084,8.084h1.078c4.465,0,8.084-3.62,8.084-8.084
	C388.042,348.546,384.423,344.926,379.958,344.926z"/>
<path style="fill:#656663;" d="M153.6,40.421H88.926c-5.953,0-10.779-4.826-10.779-10.779l0,0c0-11.906,9.651-21.558,21.558-21.558
	h43.116c11.906,0,21.558,9.651,21.558,21.558l0,0C164.379,35.595,159.553,40.421,153.6,40.421z"/>
<path d="M485.053,115.874C485.053,51.98,433.071,0,369.179,0c-31.104,0-59.382,12.321-80.217,32.337h-94.941v-2.695
	C194.021,13.297,180.723,0,164.379,0H99.705C83.361,0,70.063,13.297,70.063,29.642v2.695H56.589
	c-16.344,0-29.642,13.297-29.642,29.642v366.484c0,13.542,9.132,24.983,21.558,28.512v25.382c0,16.345,13.943,29.642,31.079,29.642
	h298.937c17.136,0,31.079-13.297,31.079-29.642v-25.382c12.426-3.529,21.558-14.971,21.558-28.512V213.736
	C463.527,193.163,485.053,156.987,485.053,115.874z M86.232,29.642c0-7.43,6.044-13.474,13.474-13.474h64.674
	c7.43,0,13.474,6.044,13.474,13.474V51.2c0,7.43-6.044,13.474-13.474,13.474H99.705c-7.43,0-13.474-6.044-13.474-13.474V29.642z
	 M378.521,495.832H79.584c-8.222,0-14.911-6.044-14.911-13.474v-24.253h328.758v24.253
	C393.432,489.788,386.743,495.832,378.521,495.832z M414.989,428.463c0,7.43-6.044,13.474-13.474,13.474H56.589
	c-7.43,0-13.474-6.044-13.474-13.474V61.979c0-7.43,6.044-13.474,13.474-13.474h13.474V51.2c0,16.345,13.298,29.642,29.642,29.642
	h64.674c16.344,0,29.642-13.297,29.642-29.642v-2.695h80.936c-13.622,18.997-21.652,42.262-21.652,67.368
	c0,63.893,51.981,115.874,115.874,115.874c16.263,0,31.752-3.374,45.811-9.449V428.463z M369.179,215.579
	c-54.978,0-99.705-44.727-99.705-99.705s44.727-99.705,99.705-99.705s99.705,44.727,99.705,99.705S424.157,215.579,369.179,215.579z
	"/>
<g>
</g>
<g>
</g>
<g>
</g>
<g>
</g>
<g>
</g>
<g>
</g>
<g>
</g>
<g>
</g>
<g>
</g>
<g>
</g>
<g>
</g>
<g>
</g>
<g>
</g>
<g>
</g>
<g>
</g>
</svg>
